HIERARCHY
ROOT Pelvis
{
	OFFSET 0.000000 0.000000 0.000000
	CHANNELS 6 Xposition Yposition Zposition Xrotation Yrotation Zrotation
	JOINT LeftUpLeg_virtual
	{
		OFFSET 0.000000 0.000000 0.000000
		CHANNELS 3 Xrotation Yrotation Zrotation
		JOINT LeftUpLeg
		{
			OFFSET 18.735201 -5.666702 -4.541200
			CHANNELS 3 Xrotation Yrotation Zrotation
			JOINT LeftLeg
			{
				OFFSET -0.021200 -31.938179 0.493100
				CHANNELS 3 Xrotation Yrotation Zrotation
				JOINT LeftFoot
				{
					OFFSET 0.021200 -31.938179 -4.336299
					CHANNELS 3 Xrotation Yrotation Zrotation
					JOINT LeftToeBase
					{
						OFFSET 0.943001 -26.722000 15.023500
						CHANNELS 3 Xrotation Yrotation Zrotation
						End Site
						{
							OFFSET 0 0 0
						}
					}
				}
			}
		}
	}
	JOINT RightUpLeg_virtual
	{
		OFFSET 0.000000 0.000000 0.000000
		CHANNELS 3 Xrotation Yrotation Zrotation
		JOINT RightUpLeg
		{
			OFFSET -18.735201 -5.666702 -4.541200
			CHANNELS 3 Xrotation Yrotation Zrotation
			JOINT RightLeg
			{
				OFFSET 0.018946 -31.938133 0.493100
				CHANNELS 3 Xrotation Yrotation Zrotation
				JOINT RightFoot
				{
					OFFSET -0.018946 -31.938126 -4.336299
					CHANNELS 3 Xrotation Yrotation Zrotation
					JOINT RightToeBase
					{
						OFFSET -0.943001 -26.722004 15.023500
						CHANNELS 3 Xrotation Yrotation Zrotation
						End Site
						{
							OFFSET 0 0 0
						}
					}
				}
			}
		}
	}
	JOINT Hips_virtual
	{
		OFFSET 0.000000 0.000000 0.000000
		CHANNELS 3 Xrotation Yrotation Zrotation
		JOINT Hips
		{
			OFFSET -0.000000 -0.000000 -0.000000
			CHANNELS 3 Xrotation Yrotation Zrotation
			JOINT Spine
			{
				OFFSET 0.000000 10.199997 -0.299500
				CHANNELS 3 Xrotation Yrotation Zrotation
				JOINT Spine1
				{
					OFFSET 0.000000 11.900002 -1.516600
					CHANNELS 3 Xrotation Yrotation Zrotation
					JOINT Spine2
					{
						OFFSET 0.000000 13.600006 -2.842500
						CHANNELS 3 Xrotation Yrotation Zrotation
						JOINT Neck_virtual
						{
							OFFSET 0.000000 0.000000 0.000000
							CHANNELS 3 Xrotation Yrotation Zrotation
							JOINT Neck
							{
								OFFSET 0.000000 9.624100 -2.890100
								CHANNELS 3 Xrotation Yrotation Zrotation
								JOINT Head
								{
									OFFSET 0.000000 14.068802 -1.351900
									CHANNELS 3 Xrotation Yrotation Zrotation
									End Site
									{
										OFFSET 0 0 0
									}
								}
							}
						}
						JOINT LeftShoulder_virtual
						{
							OFFSET 0.000000 0.000000 0.000000
							CHANNELS 3 Xrotation Yrotation Zrotation
							JOINT LeftShoulder
							{
								OFFSET 15.263000 10.923401 -0.547700
								CHANNELS 3 Xrotation Yrotation Zrotation
								JOINT LeftArm
								{
									OFFSET 25.438599 -2.830597 -13.032500
									CHANNELS 3 Xrotation Yrotation Zrotation
									JOINT LeftForeArm
									{
										OFFSET 29.960503 0.000000 0.000000
										CHANNELS 3 Xrotation Yrotation Zrotation
										JOINT LeftHand
										{
											OFFSET 27.849251 0.000000 0.000000
											CHANNELS 3 Xrotation Yrotation Zrotation
											End Site
											{
												OFFSET 0 0 0
											}
										}
									}
								}
							}
						}
						JOINT RightShoulder_virtual
						{
							OFFSET 0.000000 0.000000 0.000000
							CHANNELS 3 Xrotation Yrotation Zrotation
							JOINT RightShoulder
							{
								OFFSET -15.263000 10.923401 -0.547700
								CHANNELS 3 Xrotation Yrotation Zrotation
								JOINT RightArm
								{
									OFFSET -25.438599 -2.830597 -13.032500
									CHANNELS 3 Xrotation Yrotation Zrotation
									JOINT RightForeArm
									{
										OFFSET -29.960503 0.000000 0.000000
										CHANNELS 3 Xrotation Yrotation Zrotation
										JOINT RightHand
										{
											OFFSET -27.849251 0.000000 0.000000
											CHANNELS 3 Xrotation Yrotation Zrotation
											End Site
											{
												OFFSET 0 0 0
											}
										}
									}
								}
							}
						}
					}
				}
			}
		}
	}
}
MOTION
Frames: 4
Frame Time: 0.03333333
-1.754616 89.780113 -0.106186 0.000000 0.000000 0.000000 4.707243 -43.055873 -1.577407 -34.513035 0.412948 10.685740 47.448306 -11.740914 2.786759 -4.885957 -13.595656 -9.333947 0.000000 0.000000 0.000000 13.372654 -17.072978 4.638643 -13.701301 -11.629784 -12.554689 35.252430 3.020799 -2.599026 -14.989072 0.420606 9.177049 0.000000 0.000000 0.000000 4.504909 -0.147560 0.763602 4.490135 -19.203215 8.494181 8.945571 10.520491 2.133557 3.589955 5.992872 1.237303 0.000000 0.000000 0.000000 4.023565 5.497843 0.161600 -0.395170 1.842342 0.857607 0.000000 0.000000 0.000000 4.333785 6.358396 -1.242229 1.232210 5.314462 -4.668462 -11.155906 -24.151416 -59.936208 -0.387706 -67.388887 -6.536757 0.000000 0.000000 0.000000 6.097795 6.279842 2.203856 -1.482424 22.860763 17.355516 -11.566469 39.455261 38.870224 9.776970 73.689128 -6.733326 0.000000 0.000000 0.000000 
-2.121371 89.711975 -0.529619 0.000000 0.000000 0.000000 3.379598 -41.599779 -3.297680 -35.479100 1.150010 9.562307 47.026754 -13.108325 2.923188 -5.502006 -14.980686 -10.151562 0.000000 0.000000 0.000000 13.762736 -16.091050 4.833879 -12.886247 -11.487035 -12.086481 35.468855 3.758531 -3.198563 -14.817868 1.511894 8.644969 0.000000 0.000000 0.000000 2.463675 2.403503 -1.104530 6.830141 -19.134135 6.240944 8.200292 10.630048 1.959214 3.264149 6.258387 1.382543 0.000000 0.000000 0.000000 3.951567 5.639042 -0.119105 -0.318303 1.820677 0.923176 0.000000 0.000000 0.000000 3.877848 6.562131 -1.232580 1.605864 5.251477 -4.920872 -14.189262 -24.089925 -61.678896 1.367181 -69.707271 -4.562768 0.000000 0.000000 0.000000 5.837521 6.423029 1.985798 -0.853668 21.489023 18.144609 -10.619531 39.531277 36.776976 9.580320 74.012183 -7.228487 0.000000 0.000000 0.000000 
-2.307520 89.170029 0.842804 0.000000 0.000000 0.000000 3.677329 -38.833788 -3.819705 -34.711431 2.101134 9.082042 45.638839 -13.053392 3.295701 -6.160491 -15.168167 -9.381835 0.000000 0.000000 0.000000 15.994543 -16.762343 6.034882 -9.687174 -12.162508 -10.922711 33.725439 4.269811 -3.272914 -16.098358 1.957215 8.687316 0.000000 0.000000 0.000000 3.449250 2.398437 -0.407264 7.881307 -23.021376 8.163265 8.179549 10.648500 1.375646 2.431154 6.365791 1.463384 0.000000 0.000000 0.000000 4.182608 5.605765 -0.046089 -0.329776 1.548219 0.977774 0.000000 0.000000 0.000000 3.732418 7.377059 -1.088181 1.441256 4.494477 -5.214222 -14.788109 -24.354807 -62.971892 3.722922 -70.146821 -2.516791 0.000000 0.000000 0.000000 5.807682 6.818465 1.884875 -0.574618 21.338286 19.194305 -10.348115 40.736775 37.666670 9.144197 71.257745 -7.183530 0.000000 0.000000 0.000000 
-0.973883 89.194641 2.690926 0.000000 0.000000 0.000000 3.589306 -37.490519 -3.649678 -35.190569 2.414524 9.583895 45.981124 -12.960382 3.425460 -5.963920 -15.127383 -9.168939 0.000000 0.000000 0.000000 16.078247 -14.427504 6.143645 -9.172288 -11.550956 -10.280071 32.973230 4.802658 -3.959097 -16.883504 2.764307 7.853320 0.000000 0.000000 0.000000 2.836535 3.098902 -0.680405 7.595747 -22.705723 8.693262 7.006604 9.749215 2.265309 2.621731 6.399729 1.149704 0.000000 0.000000 0.000000 4.289074 5.592044 -0.340442 -0.375493 1.756288 0.783516 0.000000 0.000000 0.000000 4.679512 7.047383 -1.053137 1.440954 3.835145 -3.953635 -14.843628 -27.550027 -65.704132 2.804395 -72.905309 -3.770073 0.000000 0.000000 0.000000 6.745191 6.993218 1.747708 -0.770188 20.400288 20.400785 -11.012276 40.973888 38.101182 13.816926 76.061615 -11.682500 0.000000 0.000000 0.000000 
